<mxfile host="drawio-plugin" modified="2023-06-28T08:58:44.255Z" agent="5.0 (X11; Linux x86_64) AppleWebKit/537.36 (KHTML, like Gecko) Chrome/104.0.5112.102 Safari/537.36" etag="eeu2UG2O5NguPCx55VjO" version="20.5.3" type="embed"><diagram name="Page-1" id="Kg2fg5DoI4W7--v5PtMn"><mxGraphModel dx="42" dy="799" grid="1" gridSize="10" guides="1" tooltips="1" connect="1" arrows="1" fold="1" page="1" pageScale="1" pageWidth="850" pageHeight="1100" background="#ffffff" math="1" shadow="0"><root><mxCell id="0"/><mxCell id="1" parent="0"/><mxCell id="JCz27zRKufJYR5mj9ClN-22" style="edgeStyle=orthogonalEdgeStyle;rounded=0;orthogonalLoop=1;jettySize=auto;html=1;labelBackgroundColor=none;fontColor=#FFFFFF;fillColor=#f5f5f5;strokeColor=#666666;" parent="1" source="JCz27zRKufJYR5mj9ClN-19" target="JCz27zRKufJYR5mj9ClN-20" edge="1"><mxGeometry relative="1" as="geometry"/></mxCell><mxCell id="JCz27zRKufJYR5mj9ClN-19" value="Segment lanes" style="rounded=0;whiteSpace=wrap;html=1;labelBackgroundColor=none;fontColor=#333333;fillColor=#f5f5f5;strokeColor=#666666;" parent="1" vertex="1"><mxGeometry x="870" y="60.89" width="120" height="60" as="geometry"/></mxCell><mxCell id="JCz27zRKufJYR5mj9ClN-23" style="edgeStyle=orthogonalEdgeStyle;rounded=0;orthogonalLoop=1;jettySize=auto;html=1;entryX=0;entryY=0.5;entryDx=0;entryDy=0;labelBackgroundColor=none;fontColor=#FFFFFF;fillColor=#f5f5f5;strokeColor=#666666;" parent="1" source="JCz27zRKufJYR5mj9ClN-20" target="JCz27zRKufJYR5mj9ClN-21" edge="1"><mxGeometry relative="1" as="geometry"/></mxCell><mxCell id="JCz27zRKufJYR5mj9ClN-20" value="Instance Segmentation" style="rounded=0;whiteSpace=wrap;html=1;labelBackgroundColor=none;fontColor=#333333;fillColor=#f5f5f5;strokeColor=#666666;" parent="1" vertex="1"><mxGeometry x="1060" y="60" width="120" height="60" as="geometry"/></mxCell><mxCell id="Z82hvyyXcKjrur3X78Jy-2" style="edgeStyle=orthogonalEdgeStyle;rounded=0;orthogonalLoop=1;jettySize=auto;html=1;entryX=0;entryY=0.5;entryDx=0;entryDy=0;labelBackgroundColor=none;fontColor=#FFFFFF;fillColor=#f5f5f5;strokeColor=#666666;" parent="1" source="JCz27zRKufJYR5mj9ClN-21" target="Z82hvyyXcKjrur3X78Jy-1" edge="1"><mxGeometry relative="1" as="geometry"/></mxCell><mxCell id="JCz27zRKufJYR5mj9ClN-21" value="Instance matching" style="rounded=0;whiteSpace=wrap;html=1;labelBackgroundColor=none;fontColor=#333333;fillColor=#f5f5f5;strokeColor=#666666;" parent="1" vertex="1"><mxGeometry x="1240" y="59.999999999999986" width="120" height="60" as="geometry"/></mxCell><mxCell id="6of8M_cqUM9uMK7crakQ-3" value="Valeo object types:&lt;br&gt;&lt;br&gt;&amp;lt;object name=&quot;line_type&quot; type=&quot;enum&quot;&amp;gt;&lt;br&gt;&lt;span style=&quot;white-space: pre;&quot;&gt;&amp;nbsp;&amp;nbsp;&amp;nbsp;&amp;nbsp;&lt;/span&gt;&lt;span style=&quot;white-space: pre;&quot;&gt;&amp;nbsp;&amp;nbsp;&amp;nbsp;&amp;nbsp;&lt;/span&gt;&lt;span style=&quot;white-space: pre;&quot;&gt;&amp;nbsp;&amp;nbsp;&amp;nbsp;&amp;nbsp;&lt;/span&gt;&amp;lt;value&amp;gt;Single Solid&amp;lt;/value&amp;gt;&lt;br&gt;&lt;span style=&quot;white-space: pre;&quot;&gt;&amp;nbsp;&amp;nbsp;&amp;nbsp;&amp;nbsp;&lt;/span&gt;&lt;span style=&quot;white-space: pre;&quot;&gt;&amp;nbsp;&amp;nbsp;&amp;nbsp;&amp;nbsp;&lt;/span&gt;&lt;span style=&quot;white-space: pre;&quot;&gt;&amp;nbsp;&amp;nbsp;&amp;nbsp;&amp;nbsp;&lt;/span&gt;&amp;lt;value&amp;gt;Single Dashed&amp;lt;/value&amp;gt;&lt;br&gt;&lt;span style=&quot;white-space: pre;&quot;&gt;&amp;nbsp;&amp;nbsp;&amp;nbsp;&amp;nbsp;&lt;/span&gt;&lt;span style=&quot;white-space: pre;&quot;&gt;&amp;nbsp;&amp;nbsp;&amp;nbsp;&amp;nbsp;&lt;/span&gt;&lt;span style=&quot;white-space: pre;&quot;&gt;&amp;nbsp;&amp;nbsp;&amp;nbsp;&amp;nbsp;&lt;/span&gt;&amp;lt;value&amp;gt;Double Solid&amp;lt;/value&amp;gt;&lt;br&gt;&lt;span style=&quot;white-space: pre;&quot;&gt;&amp;nbsp;&amp;nbsp;&amp;nbsp;&amp;nbsp;&lt;/span&gt;&lt;span style=&quot;white-space: pre;&quot;&gt;&amp;nbsp;&amp;nbsp;&amp;nbsp;&amp;nbsp;&lt;/span&gt;&lt;span style=&quot;white-space: pre;&quot;&gt;&amp;nbsp;&amp;nbsp;&amp;nbsp;&amp;nbsp;&lt;/span&gt;&amp;lt;value&amp;gt;Double Dashed&amp;lt;/value&amp;gt;&lt;br&gt;&lt;span style=&quot;white-space: pre;&quot;&gt;&amp;nbsp;&amp;nbsp;&amp;nbsp;&amp;nbsp;&lt;/span&gt;&lt;span style=&quot;white-space: pre;&quot;&gt;&amp;nbsp;&amp;nbsp;&amp;nbsp;&amp;nbsp;&lt;/span&gt;&lt;span style=&quot;white-space: pre;&quot;&gt;&amp;nbsp;&amp;nbsp;&amp;nbsp;&amp;nbsp;&lt;/span&gt;&amp;lt;value&amp;gt;Unclassified&amp;lt;/value&amp;gt;&lt;br&gt;&lt;span style=&quot;white-space: pre;&quot;&gt;&amp;nbsp;&amp;nbsp;&amp;nbsp;&amp;nbsp;&lt;/span&gt;&lt;span style=&quot;white-space: pre;&quot;&gt;&amp;nbsp;&amp;nbsp;&amp;nbsp;&amp;nbsp;&lt;/span&gt;&amp;lt;/object&amp;gt;" style="text;whiteSpace=wrap;html=1;labelBackgroundColor=none;fontColor=#333333;fillColor=none;strokeColor=none;" parent="1" vertex="1"><mxGeometry x="1470" y="160" width="220" height="140" as="geometry"/></mxCell><mxCell id="3" style="edgeStyle=orthogonalEdgeStyle;rounded=0;orthogonalLoop=1;jettySize=auto;html=1;entryX=0;entryY=0.5;entryDx=0;entryDy=0;labelBackgroundColor=none;fontColor=#FFFFFF;fillColor=#f5f5f5;strokeColor=#666666;" edge="1" parent="1" source="Z82hvyyXcKjrur3X78Jy-1" target="2"><mxGeometry relative="1" as="geometry"/></mxCell><mxCell id="Z82hvyyXcKjrur3X78Jy-1" value="Classification" style="rounded=0;whiteSpace=wrap;html=1;labelBackgroundColor=none;fontColor=#333333;fillColor=#f5f5f5;strokeColor=#666666;" parent="1" vertex="1"><mxGeometry x="1420" y="60" width="120" height="60" as="geometry"/></mxCell><mxCell id="2" value="XML" style="rounded=0;whiteSpace=wrap;html=1;labelBackgroundColor=none;fontColor=#333333;fillColor=#f5f5f5;strokeColor=#666666;" vertex="1" parent="1"><mxGeometry x="1590" y="60" width="80" height="60" as="geometry"/></mxCell><mxCell id="4" value="Data dict" style="text;html=1;strokeColor=none;fillColor=none;align=center;verticalAlign=middle;whiteSpace=wrap;rounded=0;labelBackgroundColor=none;fontColor=#333333;" vertex="1" parent="1"><mxGeometry x="980" y="80" width="90" height="50" as="geometry"/></mxCell><mxCell id="6" value="" style="endArrow=classic;html=1;rounded=0;labelBackgroundColor=none;fontColor=#FFFFFF;strokeColor=#FF3333;strokeWidth=3;" edge="1" parent="1"><mxGeometry width="50" height="50" relative="1" as="geometry"><mxPoint x="1540" y="150" as="sourcePoint"/><mxPoint x="870" y="150" as="targetPoint"/></mxGeometry></mxCell><mxCell id="7" value="End-to-End Backpropagation" style="text;html=1;strokeColor=none;fillColor=none;align=center;verticalAlign=middle;whiteSpace=wrap;rounded=0;labelBackgroundColor=none;fontColor=#000000;" vertex="1" parent="1"><mxGeometry x="900" y="160" width="180" height="30" as="geometry"/></mxCell><mxCell id="8" value="" style="rounded=0;whiteSpace=wrap;html=1;labelBackgroundColor=none;fontColor=#000000;fillColor=none;" vertex="1" parent="1"><mxGeometry x="850" y="40" width="850" height="280" as="geometry"/></mxCell></root></mxGraphModel></diagram></mxfile>